#!OML:ASF Y:\EmotionMaleHayes\Project 1\Capture day 1\Session 1\Male1.ASF
:FULLY-SPECIFIED
:DEGREES
939
root 23.5851 16.5195 -13.2678 -347.793 -44.8445 -10.3011
lowerback 13.6538 0.276523 1.92985
upperback 5.34366 0.554555 2.48083
thorax -2.03672 0.215452 1.41653
lowerneck -23.901 1.04677 3.72708
upperneck 23.0563 1.99475 -7.01225
head 11.61 0.269521 -2.90755
rclavicle 1.67973e-014 -7.95139e-016
rhumerus -41.4964 9.12495 -74.3216
rradius 37.3196
rwrist 8.78274
rhand -19.8936 -29.8587
rfingers 7.12502
rthumb 6.44255 -59.7407
lclavicle 1.67973e-014 -7.95139e-016
lhumerus -31.6737 -31.2233 96.8733
lradius 62.5446
lwrist 14.9877
lhand -27.6405 -25.7446
lfingers 7.12502
lthumb -1.03869 4.23262
rfemur -10.6128 0.480039 11.8752
rtibia 21.0409
rfoot -21.5317 -2.80362
rtoes -33.4837
lfemur -6.3694 3.82971 -17.3853
ltibia 62.9447
lfoot -6.322 -0.0851284
ltoes 16.642
940
root 23.4053 16.591 -13.1678 -347.45 -43.9475 -10.5894
lowerback 13.682 0.419918 2.47315
upperback 5.13994 0.829523 2.5672
thorax -2.26053 0.356935 1.15819
lowerneck -23.6395 0.555518 3.36828
upperneck 23.2197 1.38652 -6.79364
head 11.5773 -0.00447993 -2.86726
rclavicle 6.95249e-014 7.95139e-015
rhumerus -39.9204 8.26421 -74.5416
rradius 38.0903
rwrist 8.13473
rhand -19.6483 -29.3787
rfingers 7.12502
rthumb 6.67934 -59.2533
lclavicle 6.95249e-014 7.95139e-015
lhumerus -31.8518 -29.6135 97.2347
lradius 57.7457
lwrist 13.8143
lhand -27.4166 -25.7981
lfingers 7.12502
lthumb -0.822426 4.18005
rfemur -8.965 -0.309499 12.4683
rtibia 19.5925
rfoot -21.6843 -2.81202
rtoes -33.7791
lfemur -9.3968 4.89094 -17.0182
ltibia 64.1337
lfoot -6.70955 -1.47547
ltoes 19.6485
941
root 23.2285 16.66 -13.0694 -347.055 -43.0313 -11.0796
lowerback 14.1011 0.55548 3.3252
upperback 4.7655 1.16288 2.58898
thorax -2.86069 0.522554 0.64441
lowerneck -23.3498 0.00995413 2.97703
upperneck 23.6052 0.687658 -6.46254
head 11.6216 -0.309321 -2.79889
rclavicle 5.53118e-014 1.94809e-014
rhumerus -38.8153 7.57183 -75.0215
rradius 39.0916
rwrist 6.75546
rhand -20.1965 -28.6924
rfingers 7.12502
rthumb 6.15008 -58.5831
lclavicle 5.53118e-014 1.94809e-014
lhumerus -32.5719 -27.9292 97.3389
lradius 53.6065
lwrist 12.7483
lhand -27.0953 -26.0073
lfingers 7.12502
lthumb -0.512137 3.97178
rfemur -7.27982 -0.715436 13.3074
rtibia 18.2126
rfoot -21.9167 -3.09166
rtoes -33.6033
lfemur -12.4259 6.22731 -16.6564
ltibia 64.4408
lfoot -6.31241 -1.79055
ltoes 16.0166
942
root 23.0506 16.7212 -12.9632 -346.707 -42.1621 -11.5531
lowerback 14.4026 0.681556 4.29421
upperback 4.48151 1.49511 2.52664
thorax -3.28749 0.682642 -0.0254219
lowerneck -23.1329 -0.479956 2.61994
upperneck 23.9504 0.0172736 -6.02109
head 11.6718 -0.583471 -2.68892
rclavicle 2.17172e-014 8.34896e-015
rhumerus -37.5909 7.19458 -75.633
rradius 40.1498
rwrist 5.02172
rhand -20.6695 -28.6677
rfingers 7.12502
rthumb 5.69342 -58.5712
lclavicle 2.17172e-014 8.34896e-015
lhumerus -32.8399 -26.0119 96.9584
lradius 49.4122
lwrist 11.4789
lhand -27.4188 -25.1002
lfingers 7.12502
lthumb -0.824533 4.87797
rfemur -5.52701 -1.10398 14.1352
rtibia 16.714
rfoot -22.0764 -3.41712
rtoes -33.9135
lfemur -15.2996 7.15659 -16.4236
ltibia 65.0622
lfoot -7.23401 -2.29875
ltoes 17.17
943
root 22.8702 16.7732 -12.8516 -346.585 -41.2735 -11.6806
lowerback 14.4789 0.773107 4.95168
upperback 4.30176 1.72239 2.40783
thorax -3.48513 0.791291 -0.559848
lowerneck -22.8929 -0.84063 2.4423
upperneck 24.0954 -0.531531 -5.6261
head 11.6521 -0.790656 -2.59987
rclavicle -1.17333e-013 -1.47101e-014
rhumerus -36.1728 6.64684 -76.0335
rradius 41.4173
rwrist 4.4222
rhand -19.8842 -29.0081
rfingers 7.12502
rthumb 6.45157 -58.8899
lclavicle -1.17333e-013 -1.47101e-014
lhumerus -32.6351 -23.608 96.0784
lradius 45.0736
lwrist 10.1357
lhand -27.7021 -24.2453
lfingers 7.12502
lthumb -1.09821 5.73167
rfemur -3.76282 -1.92834 14.5669
rtibia 15.1427
rfoot -22.1476 -3.29675
rtoes -34.3782
lfemur -18.1318 7.80529 -16.6156
ltibia 65.4337
lfoot -8.56045 -2.50507
ltoes 14.814
944
root 22.6855 16.8167 -12.7355 -346.566 -40.513 -11.7651
lowerback 14.5452 0.942933 5.43623
upperback 4.18076 2.02526 2.30723
thorax -3.61237 0.937012 -0.990711
lowerneck -22.4038 -1.3494 2.0232
upperneck 24.014 -1.26412 -5.02839
head 11.4971 -1.07374 -2.41237
rclavicle -2.76808e-014 -3.57812e-015
rhumerus -34.7428 5.88322 -76.2265
rradius 42.7821
rwrist 4.19849
rhand -18.8117 -28.9025
rfingers 7.12502
rthumb 7.48691 -58.75
lclavicle -2.76808e-014 -3.57812e-015
lhumerus -32.5277 -21.1023 95.0179
lradius 41.2158
lwrist 9.08752
lhand -28.0669 -23.752
lfingers 7.12502
lthumb -1.45056 6.22282
rfemur -2.12101 -3.29963 14.7634
rtibia 13.9832
rfoot -22.3026 -2.47366
rtoes -34.4521
lfemur -20.7482 8.64545 -16.935
ltibia 65.2484
lfoot -9.02754 -2.55799
ltoes 13.1899
945
root 22.4989 16.8527 -12.6127 -346.387 -40.0106 -12.2295
lowerback 14.6386 1.14121 6.09859
upperback 4.21473 2.38371 2.29185
thorax -3.5757 1.11259 -1.43929
lowerneck -22.7243 -1.69719 1.60311
upperneck 24.3263 -1.73881 -4.5296
head 11.6672 -1.26076 -2.24661
rclavicle -1.89342e-014 2.78299e-015
rhumerus -32.7895 5.91547 -76.4457
rradius 43.8014
rwrist 3.22962
rhand -17.4035 -28.612
rfingers 7.12502
rthumb 8.84597 -58.4066
lclavicle -1.89342e-014 2.78299e-015
lhumerus -32.3347 -18.3984 93.6723
lradius 37.9563
lwrist 8.15608
lhand -28.6468 -22.3465
lfingers 7.12502
lthumb -2.01061 7.62378
rfemur -0.372157 -3.71638 15.3737
rtibia 12.6721
rfoot -22.4793 -1.9738
rtoes -32.8651
lfemur -23.0723 9.83261 -16.9525
ltibia 64.6861
lfoot -9.14152 -2.59493
ltoes 14.8373
